<mxfile host="app.diagrams.net" modified="2020-09-11T07:34:41.952Z" agent="5.0 (Windows NT 10.0; WOW64) AppleWebKit/537.36 (KHTML, like Gecko) Chrome/74.0.3729.40 Safari/537.36" etag="Bur_1l26pabhO6Rf0SSA" version="13.6.9" type="github">
  <diagram id="enb-ShpjrgF23HqJ8tdR" name="Page-1">
    <mxGraphModel dx="1264" dy="563" grid="1" gridSize="10" guides="1" tooltips="1" connect="1" arrows="1" fold="1" page="1" pageScale="1" pageWidth="827" pageHeight="1169" math="0" shadow="0">
      <root>
        <mxCell id="0" />
        <mxCell id="1" parent="0" />
        <mxCell id="EXA7qLKe96QKYG-BU1fG-1" value="" style="rounded=0;whiteSpace=wrap;html=1;" vertex="1" parent="1">
          <mxGeometry x="220" y="120" width="160" height="30" as="geometry" />
        </mxCell>
        <mxCell id="EXA7qLKe96QKYG-BU1fG-2" value="用户名" style="text;html=1;strokeColor=none;fillColor=none;align=center;verticalAlign=middle;whiteSpace=wrap;rounded=0;" vertex="1" parent="1">
          <mxGeometry x="150" y="120" width="40" height="30" as="geometry" />
        </mxCell>
        <mxCell id="EXA7qLKe96QKYG-BU1fG-3" value="" style="rounded=0;whiteSpace=wrap;html=1;" vertex="1" parent="1">
          <mxGeometry x="220" y="175" width="160" height="30" as="geometry" />
        </mxCell>
        <mxCell id="EXA7qLKe96QKYG-BU1fG-4" value="密码" style="text;html=1;strokeColor=none;fillColor=none;align=center;verticalAlign=middle;whiteSpace=wrap;rounded=0;" vertex="1" parent="1">
          <mxGeometry x="150" y="180" width="40" height="20" as="geometry" />
        </mxCell>
        <mxCell id="EXA7qLKe96QKYG-BU1fG-5" value="手机号" style="text;html=1;strokeColor=none;fillColor=none;align=center;verticalAlign=middle;whiteSpace=wrap;rounded=0;" vertex="1" parent="1">
          <mxGeometry x="150" y="230" width="40" height="20" as="geometry" />
        </mxCell>
        <mxCell id="EXA7qLKe96QKYG-BU1fG-6" value="邮箱" style="text;html=1;strokeColor=none;fillColor=none;align=center;verticalAlign=middle;whiteSpace=wrap;rounded=0;" vertex="1" parent="1">
          <mxGeometry x="150" y="270" width="40" height="20" as="geometry" />
        </mxCell>
        <mxCell id="EXA7qLKe96QKYG-BU1fG-7" value="" style="rounded=0;whiteSpace=wrap;html=1;" vertex="1" parent="1">
          <mxGeometry x="220" y="220" width="160" height="30" as="geometry" />
        </mxCell>
        <mxCell id="EXA7qLKe96QKYG-BU1fG-8" value="" style="rounded=0;whiteSpace=wrap;html=1;" vertex="1" parent="1">
          <mxGeometry x="220" y="265" width="160" height="30" as="geometry" />
        </mxCell>
        <mxCell id="EXA7qLKe96QKYG-BU1fG-9" value="保存" style="rounded=1;whiteSpace=wrap;html=1;" vertex="1" parent="1">
          <mxGeometry x="330" y="330" width="50" height="30" as="geometry" />
        </mxCell>
      </root>
    </mxGraphModel>
  </diagram>
</mxfile>
